<?xml version="1.0" encoding="UTF-8"?>
<svg version="1.1" xmlns="http://www.w3.org/2000/svg" width="130" height="230">
<path d="M0 0 C18.48 0 36.96 0 56 0 C54.11090452 5.66728643 52.4620734 10.45557304 49.890625 15.6953125 C49.60072693 16.29068817 49.31082886 16.88606384 49.012146 17.4994812 C48.09665101 19.37726151 47.17372989 21.25125919 46.25 23.125 C45.34209206 24.97803325 44.43585755 26.8318702 43.53070068 28.68624878 C42.70071631 30.38483402 41.86663045 32.08141344 41.03222656 33.77783203 C37.96185309 40.1568612 34.99381425 46.58468374 32 53 C50.15 53 68.3 53 87 53 C83.62424638 63.12726085 83.62424638 63.12726085 82.29272461 66.60620117 C81.83857933 67.79666801 81.83857933 67.79666801 81.3752594 69.01118469 C81.05419724 69.84667343 80.73313507 70.68216217 80.40234375 71.54296875 C80.05618515 72.44794601 79.71002655 73.35292328 79.3533783 74.2853241 C78.21700497 77.25358505 77.07745239 80.2206119 75.9375 83.1875 C75.54250305 84.21731995 75.1475061 85.24713989 74.74053955 86.3081665 C67.03020892 106.4083207 59.19952151 126.46054763 51.33261108 146.49983215 C48.66159692 153.30614636 46.00189327 160.11681454 43.34765625 166.9296875 C42.97346558 167.88994843 42.5992749 168.85020935 42.21374512 169.83956909 C40.76933545 173.54665768 39.32508418 177.25380663 37.88250732 180.96160889 C36.91076205 183.45909698 35.93790375 185.95614891 34.96484375 188.453125 C34.67722672 189.19343964 34.38960968 189.93375427 34.09327698 190.69650269 C32.11356161 195.77287678 32.11356161 195.77287678 31 198 C12.19 198 -6.62 198 -26 198 C-25.25986808 194.2993404 -24.58338923 191.6955588 -23.14013672 188.33227539 C-22.75313095 187.42385391 -22.36612518 186.51543243 -21.96739197 185.57948303 C-21.54244949 184.59548019 -21.11750702 183.61147736 -20.6796875 182.59765625 C-20.23271011 181.55197983 -19.78573273 180.50630341 -19.32521057 179.42893982 C-17.8462041 175.9715585 -16.36057075 172.51706523 -14.875 169.0625 C-13.84333164 166.65385982 -12.81217013 164.24500249 -11.78149414 161.8359375 C-10.17347668 158.07789481 -8.56493586 154.32007962 -6.95405579 150.56326294 C-3.14571665 141.68157521 0.64910587 132.79421984 4.43359375 123.90234375 C4.6931636 123.292502 4.95273346 122.68266026 5.22016907 122.05433846 C6.50330685 119.0395489 7.78621941 116.02466358 9.06903076 113.00973511 C11.44201639 107.43308797 13.81651903 101.85708753 16.19140625 96.28125 C16.59056747 95.34365341 16.9897287 94.40605682 17.40098572 93.44004822 C20.5890052 85.95496864 23.79515721 78.47796651 27 71 C7.86 70.67 -11.28 70.34 -31 70 C-25.40321596 56.94083724 -19.76929276 43.95268028 -13.8125 31.0625 C-12.79211689 28.8517107 -11.77264579 26.64051585 -10.7552948 24.42832947 C-10.13480929 23.07931638 -9.51273226 21.73103306 -8.88838196 20.38380432 C-5.78572244 13.64263632 -2.92727224 6.8303019 0 0 Z " fill="#000000" transform="translate(38,15)"/>
</svg>
