<?xml version="1.0" encoding="UTF-8"?>
<svg version="1.1" xmlns="http://www.w3.org/2000/svg" width="142" height="210">
<path d="M0 0 C18.48 0 36.96 0 56 0 C54.11090452 5.66728643 52.4620734 10.45557304 49.890625 15.6953125 C49.60072693 16.29068817 49.31082886 16.88606384 49.012146 17.4994812 C48.09665101 19.37726151 47.17372989 21.25125919 46.25 23.125 C45.34209206 24.97803325 44.43585755 26.8318702 43.53070068 28.68624878 C42.70071631 30.38483402 41.86663045 32.08141344 41.03222656 33.77783203 C37.96185309 40.1568612 34.99381425 46.58468374 32 53 C50.15 53 68.3 53 87 53 C83.62424638 63.12726085 83.62424638 63.12726085 82.29272461 66.60620117 C81.83857933 67.79666801 81.83857933 67.79666801 81.3752594 69.01118469 C81.05419724 69.84667343 80.73313507 70.68216217 80.40234375 71.54296875 C80.05618515 72.44794601 79.71002655 73.35292328 79.3533783 74.2853241 C78.21700497 77.25358505 77.07745239 80.2206119 75.9375 83.1875 C75.54250305 84.21731995 75.1475061 85.24713989 74.74053955 86.3081665 C67.03020892 106.4083207 59.19952151 126.46054763 51.33261108 146.49983215 C48.66159692 153.30614636 46.00189327 160.11681454 43.34765625 166.9296875 C42.97346558 167.88994843 42.5992749 168.85020935 42.21374512 169.83956909 C40.76933545 173.54665768 39.32508418 177.25380663 37.88250732 180.96160889 C36.91076205 183.45909698 35.93790375 185.95614891 34.96484375 188.453125 C34.67722672 189.19343964 34.38960968 189.93375427 34.09327698 190.69650269 C32.11356161 195.77287678 32.11356161 195.77287678 31 198 C30.360625 198.12375 29.72125 198.2475 29.0625 198.375 C28.381875 198.58125 27.70125 198.7875 27 199 C26.34 200.32 25.68 201.64 25 203 C6.19 203 -12.62 203 -32 203 C-31.25986808 199.2993404 -30.58338923 196.6955588 -29.14013672 193.33227539 C-28.75313095 192.42385391 -28.36612518 191.51543243 -27.96739197 190.57948303 C-27.54244949 189.59548019 -27.11750702 188.61147736 -26.6796875 187.59765625 C-26.23271011 186.55197983 -25.78573273 185.50630341 -25.32521057 184.42893982 C-23.8462041 180.9715585 -22.36057075 177.51706523 -20.875 174.0625 C-19.84333164 171.65385982 -18.81217013 169.24500249 -17.78149414 166.8359375 C-16.17347668 163.07789481 -14.56493586 159.32007962 -12.95405579 155.56326294 C-9.14571665 146.68157521 -5.35089413 137.79421984 -1.56640625 128.90234375 C-1.3068364 128.292502 -1.04726654 127.68266026 -0.77983093 127.05433846 C0.50330685 124.0395489 1.78621941 121.02466358 3.06903076 118.00973511 C5.44201639 112.43308797 7.81651903 106.85708753 10.19140625 101.28125 C10.59056747 100.34365341 10.9897287 99.40605682 11.40098572 98.44004822 C14.5890052 90.95496864 17.79515721 83.47796651 21 76 C1.86 75.67 -17.28 75.34 -37 75 C-31.40321596 61.94083724 -25.76929276 48.95268028 -19.8125 36.0625 C-15.06066067 25.767038 -10.40394734 15.44992163 -6 5 C-4.35 5 -2.7 5 -1 5 C-0.67 3.35 -0.34 1.7 0 0 Z " fill="#FEFEFE" transform="translate(45,0)"/>
<path d="M0 0 C1.32 0 2.64 0 4 0 C3.33747473 5.09264091 1.15345076 9.42805493 -0.97265625 14.04296875 C-1.37399277 14.92543777 -1.77532928 15.8079068 -2.18882751 16.71711731 C-3.47512518 19.54285499 -4.76855888 22.36525535 -6.0625 25.1875 C-7.32990481 27.96400982 -8.59579788 30.74120372 -9.8611908 33.51863098 C-10.64676155 35.24155858 -11.43368466 36.9638707 -12.22242737 38.68534851 C-16.2201219 47.42651986 -20.09525966 56.21433423 -24 65 C-4.86 65 14.28 65 34 65 C30.62528707 75.1241388 30.62528707 75.1241388 28.82128906 79.30541992 C28.41443375 80.2535405 28.00757843 81.20166107 27.58839417 82.17851257 C26.93362343 83.68923088 26.93362343 83.68923088 26.265625 85.23046875 C25.79910019 86.31524002 25.33257538 87.40001129 24.85191345 88.51765442 C23.84550973 90.85676825 22.83747635 93.19518146 21.82797241 95.53295898 C20.23129816 99.23081296 18.63883824 102.93045139 17.0480957 106.63085938 C16.50257962 107.89975014 15.95706264 109.16864051 15.4115448 110.43753052 C15.13892508 111.07168003 14.86630535 111.70582954 14.58542442 112.35919571 C13.74868435 114.30511277 12.91148828 116.25083308 12.07417297 118.19650269 C6.59183755 130.9374025 1.13924086 143.69089594 -4.29919434 156.45059204 C-5.78940262 159.94582586 -7.28188084 163.44008466 -8.77441406 166.93432617 C-9.68960532 169.08115257 -10.60465219 171.22804054 -11.51953125 173.375 C-11.93098892 174.33718948 -12.34244659 175.29937897 -12.76637268 176.29072571 C-13.15002487 177.1925206 -13.53367706 178.09431549 -13.92895508 179.0234375 C-14.25849686 179.79606934 -14.58803864 180.56870117 -14.92756653 181.36474609 C-16.35846292 184.88083862 -17.66710049 188.44560131 -19 192 C-1.84 192 15.32 192 33 192 C32.34 193.98 31.68 195.96 31 198 C12.19 198 -6.62 198 -26 198 C-25.25986808 194.2993404 -24.58338923 191.6955588 -23.14013672 188.33227539 C-22.75313095 187.42385391 -22.36612518 186.51543243 -21.96739197 185.57948303 C-21.54244949 184.59548019 -21.11750702 183.61147736 -20.6796875 182.59765625 C-20.23271011 181.55197983 -19.78573273 180.50630341 -19.32521057 179.42893982 C-17.8462041 175.9715585 -16.36057075 172.51706523 -14.875 169.0625 C-13.84333164 166.65385982 -12.81217013 164.24500249 -11.78149414 161.8359375 C-10.17347668 158.07789481 -8.56493586 154.32007962 -6.95405579 150.56326294 C-3.14571665 141.68157521 0.64910587 132.79421984 4.43359375 123.90234375 C4.6931636 123.292502 4.95273346 122.68266026 5.22016907 122.05433846 C6.50330685 119.0395489 7.78621941 116.02466358 9.06903076 113.00973511 C11.44201639 107.43308797 13.81651903 101.85708753 16.19140625 96.28125 C16.59056747 95.34365341 16.9897287 94.40605682 17.40098572 93.44004822 C20.5890052 85.95496864 23.79515721 78.47796651 27 71 C7.86 70.67 -11.28 70.34 -31 70 C-25.40321596 56.94083724 -19.76929276 43.95268028 -13.8125 31.0625 C-9.06066067 20.767038 -4.40394734 10.44992163 0 0 Z " fill="#060606" transform="translate(39,5)"/>
</svg>
